# xmcd
#
# Track frame offsets: 
#        150
#        16260
#        34480
#        48307
#        62285
#        72507
#        82042
#        99807
#        115692
#        128425
#        143070
#        153737
#        163177
#
# Disc length: 2415 seconds
#
# Revision: 6
# Processed by: cddbd v1.5.2PL0 Copyright (c) Steve Scherf et al.
# Submitted via: ExactAudioCopy v0.95b4
#
DISCID=a5096d0d
DTITLE=The Paladins - Let's Buzz !
DYEAR=1990
DGENRE=Blues
TTITLE0=Follow Your Heart
TTITLE1=Keep On Lovin' Me Baby
TTITLE2=Let's Buzz
TTITLE3=I Don't Believe
TTITLE4=Mercy
TTITLE5=Untamed Melody
TTITLE6=What Side Of The Door Am I On?
TTITLE7=Kiddio
TTITLE8=The Thing
TTITLE9=Lawdy Lawdy Miss Mary
TTITLE10=Sneakin' Around
TTITLE11=Playgirl
TTITLE12=I've  Been Down Before
EXTD=YEAR: 1990
EXTT0=
EXTT1=
EXTT2=
EXTT3=
EXTT4=
EXTT5=
EXTT6=
EXTT7=
EXTT8=
EXTT9=
EXTT10=
EXTT11=
EXTT12=
PLAYORDER=
